<?xml version="1.0" encoding="UTF-8" standalone="yes"?>
<!-- Created with sK1/UniConvertor (http://sk1project.org/) -->
<svg xmlns="http://www.w3.org/2000/svg" xmlns:xlink="http://www.w3.org/1999/xlink"
     viewBox="0 0 464 431">
  <g>
    <path style="stroke:none; fill:white"
          d="M 61.3 1.10001C 37.8 5 15.1 24.2 5.6 48.4C 1.1 59.7 -0.300002 68 0.299998 81C 0.899998 93.9 3.5 103.1 9.2 112.8C 14.1 121 26.9 133.4 40.5 142.9C 68 162.2 80.3 172.5 95.9 189.5C 116 211.3 133.3 241.2 143.5 271.5C 150.7 293.1 154.5 312.3 157.5 343.5C 158.3 352.3 159.7 363.3 160.6 367.9C 165.9 396.8 182.3 418.2 206 426.9C 220.2 432.1 241 432.3 255.9 427.4C 279.2 419.7 297.2 399.1 302.4 374.2C 303.2 370.5 304.8 358.9 306 348.5C 311.2 301.7 317.1 276.4 329.5 248.9C 346.9 210 373.8 177.7 409.8 152.2C 441.8 129.7 447.8 124.4 454.8 112.7C 461 102.4 463.3 94 463.8 79.8C 464.3 64.5 462.7 55.9 457.1 44.4C 448.7 27 435.6 14.3 417.7 6C 407.1 1 400.1 -0.299988 386.5 0.200012C 369 0.900024 358.5 4.90002 334.5 20C 329.6 23.2 321.2 28.1 316 31C 310.8 33.9 306.3 36.4 306.1 36.6C 305.9 36.8 305.7 69.4 305.6 109.2C 305.5 181.3 305.5 181.5 303.2 188.8C 296.5 210.6 283.5 225.6 263.4 235.1C 258.9 237.2 252.2 239.7 248.4 240.6C 239 242.9 222.5 242.9 214 240.6C 187.6 233.6 167.2 212.2 160.3 184.2C 158.8 178.2 158.6 170.3 158.9 106.8L 159.2 36.1L 153.9 33.4C 150.9 31.9 143.5 27.5 137.4 23.5C 114.3 8.5 105.2 4.10001 91.2 1.39999C 83.2 -0.100006 69.5 -0.300018 61.3 1.10001z"/>
    <path style="stroke:none; fill:white"
          d="M 219.3 39.5C 210.5 41.9 203.8 45.9 196.9 52.9C 189.8 60.1 185.9 67.1 184.1 76C 182.4 84.7 182.2 172.1 183.8 179.3C 189.8 205.1 213.9 221.9 239.4 218C 259.9 214.9 275.8 199.8 280.1 179.5C 281 175.2 281.3 160.3 281.4 126.5C 281.5 80.5 281.4 79.3 279.2 72.3C 274.9 58.4 263.5 46.1 250.3 40.9C 242.9 38 227.1 37.3 219.3 39.5z"/>
  </g>
</svg>