<?xml version="1.0" encoding="UTF-8" standalone="no"?>
<svg
   xmlns:dc="http://purl.org/dc/elements/1.1/"
   xmlns:cc="http://creativecommons.org/ns#"
   xmlns:rdf="http://www.w3.org/1999/02/22-rdf-syntax-ns#"
   xmlns:svg="http://www.w3.org/2000/svg"
   xmlns="http://www.w3.org/2000/svg"
   xmlns:sodipodi="http://sodipodi.sourceforge.net/DTD/sodipodi-0.dtd"
   xmlns:inkscape="http://www.inkscape.org/namespaces/inkscape"
   enable-background="new 0 0 512 512"
   id="Layer_1"
   version="1.1"
   viewBox="0 0 275 512"
   xml:space="preserve"
   inkscape:version="0.91 r13725"
   sodipodi:docname="swiper_left_inkscape.svg"
   width="275"
   height="512"><metadata
     id="metadata13"><rdf:RDF><cc:Work
         rdf:about=""><dc:format>image/svg+xml</dc:format><dc:type
           rdf:resource="http://purl.org/dc/dcmitype/StillImage" /><dc:title></dc:title></cc:Work></rdf:RDF></metadata><defs
     id="defs11" /><sodipodi:namedview
     pagecolor="#ffffff"
     bordercolor="#666666"
     borderopacity="1"
     objecttolerance="10"
     gridtolerance="10"
     guidetolerance="10"
     inkscape:pageopacity="0"
     inkscape:pageshadow="2"
     inkscape:window-width="1241"
     inkscape:window-height="766"
     id="namedview9"
     showgrid="false"
     inkscape:zoom="0.4609375"
     inkscape:cx="-46.720769"
     inkscape:cy="145.65467"
     inkscape:window-x="1176"
     inkscape:window-y="107"
     inkscape:window-maximized="0"
     inkscape:current-layer="Layer_1" /><g
     id="g3"
     style="fill:#fef2b8;fill-opacity:1;stroke:none"
     transform="matrix(0.99980492,0,0,0.99975235,-118.45006,0.12679786)"><path
       d="m 129,266.5 c 2.6,0 5.3,-1 7.3,-3 L 390.3,18 c 4.2,-4 4.3,-10.7 0.3,-14.9 -4,-4.2 -10.7,-4.3 -14.9,-0.3 l -254,245.5 c -4.2,4 -4.3,10.7 -0.3,14.9 2.1,2.3 4.8,3.3 7.6,3.3 z"
       id="path5"
       style="fill:#fef2b8;fill-opacity:1;stroke:none"
       inkscape:connector-curvature="0" /><path
       d="m 383,512 c 2.8,0 5.5,-1.1 7.6,-3.2 4,-4.2 3.9,-10.9 -0.3,-14.9 l -254,-245.5 c -4.2,-4 -10.9,-3.9 -14.9,0.3 -4,4.2 -3.9,10.9 0.3,14.9 l 254,245.5 c 2,1.9 4.7,2.9 7.3,2.9 z"
       id="path7"
       style="fill:#fef2b8;fill-opacity:1;stroke:none"
       inkscape:connector-curvature="0" /></g></svg>